<svg width="1366" height="156" fill="none" xmlns="http://www.w3.org/2000/svg"><path fill="#5CA5A5" d="M0 0h1366v156H0z"/><mask id="a" style="mask-type:alpha" maskUnits="userSpaceOnUse" x="0" y="0" width="1366" height="156"><path fill="#fff" d="M0 0h1366v156H0z"/></mask><g mask="url(#a)" fill-rule="evenodd" clip-rule="evenodd" fill="#63BABA"><path d="M842.498 563.441c51.433 51.426 134.816 51.426 186.252 0l396.66-396.603c51.44-51.436 51.44-134.84 0-186.276-51.44-51.426-134.82-51.426-186.25 0L1060.98 158.71c43.83-51.75 41.33-129.34-7.48-178.148-51.43-51.426-134.817-51.426-186.251 0L470.591 377.165c-51.444 51.437-51.444 134.839 0 186.276 51.433 51.426 134.816 51.426 186.25 0l178.172-178.148c-43.825 51.75-41.33 129.34 7.485 178.148ZM-102.41 117.441c51.434 51.426 134.817 51.426 186.25 0L480.5-279.162c51.444-51.436 51.444-134.839 0-186.276-51.434-51.426-134.816-51.426-186.25 0L-102.41-68.835c-51.443 51.436-51.443 134.84 0 186.276Zm444.693-71.824c51.433 51.426 134.816 51.426 186.249 0l396.659-396.603c51.444-51.437 51.444-134.839 0-186.276-51.434-51.426-134.816-51.426-186.25 0L342.282-140.659c-51.443 51.436-51.443 134.84.001 186.276Z"/></g></svg>