<svg width="184" height="31" viewBox="0 0 184 31" fill="none" xmlns="http://www.w3.org/2000/svg">
<g clip-path="url(#clip0_1_292)">
<g opacity="0.6">
<path opacity="0.4" d="M32.3033 11.738L19.8761 20.5628H14.3528L1.92563 11.738L17.1145 1.65259L32.3033 11.738Z" fill="#30424F"/>
<path opacity="0.6" fill-rule="evenodd" clip-rule="evenodd" d="M16.4123 0.603576C16.8374 0.321269 17.3913 0.321269 17.8164 0.603576L33.0053 10.689C33.3574 10.9228 33.5689 11.3165 33.5689 11.738V28.1268C33.5689 28.7954 33.3022 29.4368 32.8274 29.9096C32.3527 30.3825 31.7088 30.6481 31.0374 30.6481H3.19123C2.51985 30.6481 1.87596 30.3825 1.40121 29.9096C0.926465 29.4368 0.65976 28.7954 0.65976 28.1268V11.738C0.65976 11.3165 0.871266 10.9228 1.22339 10.689L16.4123 0.603576ZM3.19123 12.4127V28.1268H31.0374V12.4127L17.1143 3.16767L3.19123 12.4127Z" fill="#30424F"/>
<path opacity="0.6" fill-rule="evenodd" clip-rule="evenodd" d="M15.387 19.8354C15.7903 20.4041 15.6544 21.1908 15.0834 21.5925L3.04651 30.061C2.47554 30.4626 1.68574 30.3273 1.28243 29.7585C0.879112 29.1899 1.01502 28.4032 1.58599 28.0016L13.623 19.5331C14.1939 19.1314 14.9837 19.2668 15.387 19.8354Z" fill="#30424F"/>
<path opacity="0.6" fill-rule="evenodd" clip-rule="evenodd" d="M18.8426 19.8352C19.246 19.2665 20.0358 19.1311 20.6067 19.5328L32.6439 28.0014C33.2148 28.4031 33.3508 29.1897 32.9475 29.7585C32.5441 30.3271 31.7543 30.4625 31.1833 30.0608L19.1462 21.5923C18.5752 21.1905 18.4393 20.4039 18.8426 19.8352Z" fill="#30424F"/>
<path opacity="0.6" fill-rule="evenodd" clip-rule="evenodd" d="M0.894981 11.0062C1.3008 10.4392 2.09119 10.3074 2.66039 10.7116L14.7577 19.3021H19.4711L31.5685 10.7116C32.1377 10.3074 32.9281 10.4392 33.3339 11.0062C33.7397 11.5731 33.6073 12.3603 33.0381 12.7645L20.6109 21.5893C20.3964 21.7416 20.1395 21.8235 19.8761 21.8235H14.3527C14.0893 21.8235 13.8324 21.7416 13.6179 21.5893L1.1908 12.7645C0.621608 12.3603 0.489165 11.5731 0.894981 11.0062Z" fill="#30424F"/>
<path opacity="0.6" d="M47.1903 26.0022C46.851 26.0022 46.5653 25.8865 46.333 25.6552C46.1009 25.424 45.9848 25.1394 45.9848 24.8015V8.87211C45.9848 8.39183 46.1544 7.9827 46.4938 7.64472C46.8331 7.28896 47.2439 7.11108 47.7261 7.11108H48.0743C48.6458 7.11108 49.137 7.3779 49.5478 7.91155L59.8617 22.7469V8.33847C59.8617 8.00049 59.9778 7.71588 60.2099 7.48463C60.4421 7.23559 60.7279 7.11108 61.0672 7.11108C61.4066 7.11108 61.6923 7.23559 61.9244 7.48463C62.1745 7.71588 62.2995 8.00049 62.2995 8.33847V24.2678C62.2995 24.748 62.1209 25.1572 61.7637 25.4951C61.4244 25.8331 61.0136 26.0022 60.5314 26.0022H60.2099C59.9242 26.0022 59.6563 25.9399 59.4063 25.8153C59.1562 25.673 58.9509 25.4952 58.7901 25.2817L48.4227 10.3663V24.8015C48.4227 25.1394 48.2976 25.424 48.0476 25.6552C47.8154 25.8865 47.5297 26.0022 47.1903 26.0022Z" fill="#30424F"/>
<path opacity="0.6" d="M72.6687 26.1355C71.2935 26.1355 70.088 25.8421 69.0521 25.2551C68.0162 24.6681 67.2126 23.8409 66.6411 22.7736C66.0874 21.6885 65.8106 20.4522 65.8106 19.0647C65.8106 17.6773 66.0874 16.4499 66.6411 15.3826C67.2126 14.2975 68.0162 13.4615 69.0521 12.8745C70.088 12.2875 71.2935 11.9939 72.6687 11.9939C74.026 11.9939 75.2226 12.2875 76.2584 12.8745C77.2943 13.4615 78.098 14.2975 78.6695 15.3826C79.241 16.4499 79.5267 17.6773 79.5267 19.0647C79.5267 20.4522 79.241 21.6885 78.6695 22.7736C78.098 23.8409 77.2943 24.6681 76.2584 25.2551C75.2226 25.8421 74.026 26.1355 72.6687 26.1355ZM72.6687 23.9209C73.4009 23.9209 74.0975 23.7519 74.7582 23.4139C75.4369 23.0759 75.9906 22.5424 76.4192 21.8131C76.8657 21.0837 77.0889 20.1587 77.0889 19.0381C77.0889 17.9352 76.8657 17.0191 76.4192 16.2898C75.9906 15.5604 75.4369 15.0357 74.7582 14.7155C74.0975 14.3775 73.4009 14.2086 72.6687 14.2086C71.9186 14.2086 71.2042 14.3775 70.5255 14.7155C69.8647 15.0357 69.32 15.5604 68.8914 16.2898C68.4628 17.0191 68.2485 17.9352 68.2485 19.0381C68.2485 20.1587 68.4628 21.0837 68.8914 21.8131C69.32 22.5424 69.8647 23.0759 70.5255 23.4139C71.2042 23.7519 71.9186 23.9209 72.6687 23.9209Z" fill="#30424F"/>
<path opacity="0.6" d="M86.8285 26.002C86.4713 26.002 86.1498 25.8952 85.8641 25.6818C85.5783 25.4683 85.3819 25.2014 85.2748 24.8813L81.4706 13.7815C81.4171 13.6214 81.3903 13.4701 81.3903 13.3279C81.3903 12.9899 81.5063 12.7053 81.7385 12.474C81.9707 12.2428 82.2564 12.1272 82.5958 12.1272C82.8458 12.1272 83.0691 12.1983 83.2655 12.3406C83.4798 12.4652 83.6227 12.6341 83.6941 12.8476L86.8285 23.1203L89.9361 13.0877C90.0253 12.8031 90.1861 12.5719 90.4182 12.394C90.6683 12.2161 90.9452 12.1272 91.2487 12.1272C91.5524 12.1272 91.8206 12.2161 92.0522 12.394C92.3021 12.5719 92.4724 12.8031 92.5612 13.0877L95.669 23.1203L98.8034 12.8476C98.8748 12.6341 99.0085 12.4652 99.2053 12.3406C99.4195 12.1983 99.652 12.1272 99.9019 12.1272C100.241 12.1272 100.527 12.2428 100.759 12.474C100.991 12.7053 101.108 12.9899 101.108 13.3279C101.108 13.4701 101.08 13.6214 101.027 13.7815L97.2225 24.8813C97.1154 25.2014 96.9195 25.4683 96.633 25.6818C96.3473 25.8952 96.026 26.002 95.669 26.002C95.312 26.002 94.9907 25.8952 94.7042 25.6818C94.4186 25.4683 94.2135 25.1926 94.0881 24.8546L91.2487 16.0228L88.4091 24.8546C88.284 25.1926 88.0787 25.4683 87.7929 25.6818C87.5072 25.8952 87.1857 26.002 86.8285 26.002Z" fill="#30424F"/>
<path opacity="0.6" fill-rule="evenodd" clip-rule="evenodd" d="M49.6883 7.80349C49.6901 7.80577 49.6917 7.80809 49.6934 7.81044L59.6829 22.1791V8.3383C59.6829 7.95617 59.8158 7.62673 60.0809 7.3614C60.3462 7.07805 60.6784 6.93359 61.0665 6.93359C61.4534 6.93359 61.7847 7.07723 62.0497 7.359C62.3326 7.62285 62.4768 7.95289 62.4768 8.3383V24.2676C62.4768 24.797 62.2779 25.2517 61.8873 25.622C61.5147 25.9923 61.0591 26.1793 60.5307 26.1793H60.2092C59.8964 26.1793 59.6012 26.1109 59.3259 25.9738C59.323 25.9723 59.3201 25.9708 59.3172 25.9691C59.0476 25.8158 58.8233 25.6222 58.6469 25.388L58.643 25.3825L48.5999 10.9338V24.8013C48.5999 25.1878 48.4549 25.5185 48.1704 25.7828C47.904 26.047 47.5733 26.1793 47.1896 26.1793C46.8048 26.1793 46.4732 26.0462 46.2064 25.7805C45.9396 25.5147 45.806 25.1845 45.806 24.8013V8.87195C45.806 8.34565 45.9937 7.89189 46.3655 7.52078C46.7374 7.13173 47.1939 6.93359 47.7254 6.93359H48.0736C48.7109 6.93359 49.2508 7.235 49.6883 7.80349ZM46.4931 7.64456C46.8324 7.2888 47.2432 7.11091 47.7254 7.11091H48.0736C48.6451 7.11091 49.1362 7.37774 49.547 7.91139L59.8609 22.7467V8.3383C59.8609 8.00032 59.9771 7.71571 60.2092 7.48447C60.4414 7.23543 60.7272 7.11091 61.0665 7.11091C61.4058 7.11091 61.6915 7.23543 61.9237 7.48447C62.1737 7.71571 62.2987 8.00032 62.2987 8.3383V24.2676C62.2987 24.7479 62.1201 25.157 61.7629 25.495C61.4236 25.833 61.0129 26.002 60.5307 26.002H60.2092C59.9234 26.002 59.6556 25.9397 59.4055 25.8152C59.1555 25.6729 58.9501 25.495 58.7894 25.2816L48.4218 10.3661V24.8013C48.4218 25.1393 48.2969 25.4238 48.0468 25.6551C47.8147 25.8864 47.5289 26.002 47.1896 26.002C46.8503 26.002 46.5645 25.8864 46.3323 25.6551C46.1002 25.4238 45.9841 25.1393 45.9841 24.8013V8.87195C45.9841 8.39167 46.1537 7.98253 46.4931 7.64456ZM66.4816 22.8537C65.9136 21.7405 65.6318 20.476 65.6318 19.0645C65.6318 17.6532 65.9136 16.3972 66.4821 15.301L66.4826 15.3C67.0695 14.186 67.8968 13.3245 68.9633 12.7202C70.0299 12.1157 71.2667 11.8165 72.6679 11.8165C74.0518 11.8165 75.2794 12.116 76.3457 12.7202C77.4119 13.3244 78.2392 14.1855 78.826 15.2993C79.413 16.3957 79.704 17.6525 79.704 19.0645C79.704 20.4769 79.4129 21.7421 78.8263 22.8558L78.8258 22.8568C78.2387 23.9531 77.4114 24.8051 76.3457 25.409C75.2794 26.0132 74.0518 26.3127 72.6679 26.3127C71.2667 26.3127 70.0299 26.0135 68.9633 25.409C67.8976 24.8051 67.0702 23.9531 66.4832 22.8568L66.4816 22.8537ZM78.6687 15.3825C78.0972 14.2974 77.2936 13.4613 76.2577 12.8743C75.2219 12.2873 74.0252 11.9938 72.6679 11.9938C71.2927 11.9938 70.0872 12.2873 69.0514 12.8743C68.0155 13.4613 67.2118 14.2974 66.6403 15.3825C66.0867 16.4497 65.8098 17.6771 65.8098 19.0645C65.8098 20.4521 66.0867 21.6883 66.6403 22.7734C67.2118 23.8407 68.0155 24.6679 69.0514 25.2549C70.0872 25.8419 71.2927 26.1354 72.6679 26.1354C74.0252 26.1354 75.2219 25.8419 76.2577 25.2549C77.2936 24.6679 78.0972 23.8407 78.6687 22.7734C79.2402 21.6883 79.526 20.4521 79.526 19.0645C79.526 17.6771 79.2402 16.4497 78.6687 15.3825ZM74.6762 23.256L74.6778 23.2552C75.3221 22.9343 75.8514 22.4266 76.2648 21.7232L76.2664 21.7205C76.6913 21.0264 76.9101 20.1359 76.9101 19.0379C76.9101 17.9583 76.6916 17.0764 76.2664 16.3819L76.2647 16.3792C75.8518 15.6765 75.3235 15.1786 74.6812 14.8756L74.6761 14.8732C74.0401 14.5479 73.3714 14.3857 72.6679 14.3857C71.9457 14.3857 71.2586 14.5482 70.6044 14.874L70.6026 14.8748C69.9781 15.1774 69.4579 15.6753 69.0442 16.3792C68.6358 17.0742 68.4257 17.9572 68.4257 19.0379C68.4257 20.137 68.6359 21.0286 69.0442 21.7232C69.4581 22.4274 69.9791 22.9352 70.6053 23.2556C71.2593 23.5811 71.9461 23.7434 72.6679 23.7434C73.3714 23.7434 74.0401 23.5813 74.6762 23.256ZM70.5247 23.4138C69.864 23.0758 69.3192 22.5422 68.8906 21.8129C68.462 21.0835 68.2476 20.1586 68.2476 19.0379C68.2476 17.935 68.462 17.0189 68.8906 16.2896C69.3192 15.5603 69.864 15.0355 70.5247 14.7153C71.2034 14.3774 71.9178 14.2084 72.6679 14.2084C73.4002 14.2084 74.0966 14.3774 74.7575 14.7153C75.4362 15.0355 75.9898 15.5603 76.4184 16.2896C76.8649 17.0189 77.0881 17.935 77.0881 19.0379C77.0881 20.1586 76.8649 21.0835 76.4184 21.8129C75.9898 22.5422 75.4362 23.0758 74.7575 23.4138C74.0966 23.7517 73.4002 23.9208 72.6679 23.9208C71.9178 23.9208 71.2034 23.7517 70.5247 23.4138ZM101.026 13.7815L97.2216 24.8813C97.1145 25.2015 96.9186 25.4683 96.633 25.6818C96.3464 25.8952 96.0251 26.002 95.6681 26.002C95.3111 26.002 94.9898 25.8952 94.7042 25.6818C94.4176 25.4683 94.2126 25.1926 94.0881 24.8546L91.248 16.0228L88.4083 24.8546C88.2833 25.1926 88.0779 25.4683 87.7922 25.6818C87.5064 25.8952 87.185 26.002 86.8278 26.002C86.4706 26.002 86.1491 25.8952 85.8633 25.6818C85.5776 25.4683 85.3811 25.2015 85.2739 24.8813L81.4699 13.7815C81.4163 13.6214 81.3895 13.4702 81.3895 13.3279C81.3895 12.9899 81.5056 12.7053 81.7377 12.474C81.9699 12.2428 82.2557 12.1272 82.595 12.1272C82.845 12.1272 83.0683 12.1983 83.2648 12.3406C83.4791 12.4652 83.622 12.6341 83.6934 12.8476L86.8278 23.1202L89.9353 13.0877C90.0246 12.8032 90.1854 12.5719 90.4175 12.394C90.6675 12.2161 90.9443 12.1272 91.248 12.1272C91.5514 12.1272 91.8197 12.2161 92.0513 12.394C92.3021 12.5719 92.4715 12.8032 92.5602 13.0877L95.6681 23.1202L98.8025 12.8476C98.8739 12.6341 99.0076 12.4652 99.2044 12.3406C99.4186 12.1983 99.6511 12.1272 99.901 12.1272C100.241 12.1272 100.526 12.2428 100.758 12.474C100.99 12.7053 101.107 12.9899 101.107 13.3279C101.107 13.4702 101.08 13.6214 101.026 13.7815ZM99.1074 12.192C99.349 12.0316 99.6154 11.9498 99.901 11.9498C100.285 11.9498 100.617 12.083 100.884 12.3487C101.151 12.6144 101.284 12.9447 101.284 13.3279C101.284 13.4924 101.253 13.6627 101.195 13.8376L101.195 13.8388L97.3909 24.9374C97.3909 24.9377 97.3909 24.9379 97.3909 24.9383C97.271 25.2942 97.0522 25.5899 96.7392 25.8236C96.4233 26.0601 96.0636 26.1793 95.6681 26.1793C95.2726 26.1793 94.9138 26.0601 94.5971 25.8236C94.2831 25.5894 94.057 25.2856 93.9206 24.916C93.9197 24.9135 93.9187 24.9111 93.9178 24.9087L91.248 16.6042L88.5779 24.9087C88.5771 24.9111 88.5762 24.9135 88.5753 24.916C88.4387 25.2856 88.2125 25.5894 87.899 25.8236C87.5825 26.0601 87.2234 26.1793 86.8278 26.1793C86.432 26.1793 86.0731 26.0601 85.7565 25.8236C85.4437 25.5899 85.2247 25.2942 85.1053 24.9383C85.1052 24.9379 85.1051 24.9377 85.105 24.9374L81.301 13.8376C81.2424 13.6627 81.2115 13.4924 81.2115 13.3279C81.2115 12.9447 81.345 12.6144 81.6119 12.3487C81.8786 12.083 82.2102 11.9498 82.595 11.9498C82.8785 11.9498 83.1362 12.0304 83.3622 12.192C83.6059 12.3356 83.7767 12.5357 83.8623 12.7915L83.8638 12.7961L86.8291 22.5147L89.7652 13.0355L89.7654 13.0349C89.8653 12.7163 90.047 12.4541 90.3089 12.2535L90.314 12.2497C90.5938 12.0506 90.9068 11.9498 91.248 11.9498C91.5881 11.9498 91.8938 12.0501 92.1575 12.2515C92.4367 12.451 92.6298 12.7133 92.7305 13.0349V13.0355L95.6672 22.5147L98.6332 12.7915C98.7183 12.5388 98.8785 12.3376 99.1074 12.192Z" fill="#30424F"/>
<path opacity="0.6" d="M106.633 26.0022C106.293 26.0022 106.008 25.8865 105.775 25.6552C105.544 25.424 105.427 25.1394 105.427 24.8015V8.33847C105.427 8.00049 105.544 7.71588 105.775 7.48463C106.008 7.23559 106.293 7.11108 106.633 7.11108C106.973 7.11108 107.258 7.23559 107.49 7.48463C107.74 7.71588 107.865 8.00049 107.865 8.33847V24.8015C107.865 25.1394 107.74 25.424 107.49 25.6552C107.258 25.8865 106.973 26.0022 106.633 26.0022Z" fill="#30424F"/>
<path opacity="0.6" d="M113.528 26.0022C113.189 26.0022 112.903 25.8865 112.671 25.6552C112.439 25.424 112.322 25.1394 112.322 24.8015V13.3547C112.322 13.0167 112.439 12.7322 112.671 12.5009C112.903 12.2518 113.189 12.1274 113.528 12.1274C113.868 12.1274 114.153 12.2518 114.386 12.5009C114.636 12.7322 114.76 13.0167 114.76 13.3547V14.4487C115.439 13.7016 116.172 13.1057 116.957 12.661C117.744 12.2163 118.672 11.9939 119.744 11.9939C120.726 11.9939 121.574 12.2252 122.289 12.6877C123.021 13.1502 123.574 13.7817 123.949 14.5821C124.342 15.3826 124.539 16.2631 124.539 17.2237V24.8015C124.539 25.1394 124.413 25.424 124.163 25.6552C123.932 25.8865 123.645 26.0022 123.307 26.0022C122.967 26.0022 122.681 25.8865 122.449 25.6552C122.217 25.424 122.101 25.1394 122.101 24.8015V17.4905C122.101 15.3203 121.119 14.2353 119.154 14.2353C118.261 14.2353 117.457 14.4665 116.743 14.929C116.046 15.3915 115.385 16.014 114.76 16.7967V24.8015C114.76 25.1394 114.636 25.424 114.386 25.6552C114.153 25.8865 113.868 26.0022 113.528 26.0022Z" fill="#30424F"/>
<path opacity="0.6" fill-rule="evenodd" clip-rule="evenodd" d="M106.633 26.1793C106.249 26.1793 105.916 26.0462 105.65 25.7805C105.384 25.5147 105.25 25.1845 105.25 24.8013V8.3383C105.25 7.95617 105.383 7.62674 105.647 7.3614C105.913 7.07805 106.245 6.93359 106.633 6.93359C107.02 6.93359 107.352 7.07723 107.616 7.359C107.899 7.62285 108.044 7.95289 108.044 8.3383V24.8013C108.044 25.1878 107.898 25.5185 107.613 25.7828C107.347 26.047 107.017 26.1793 106.633 26.1793ZM107.49 25.6551C107.741 25.4238 107.865 25.1393 107.865 24.8013V8.3383C107.865 8.00032 107.741 7.71571 107.49 7.48447C107.258 7.23543 106.973 7.11091 106.633 7.11091C106.293 7.11091 106.008 7.23543 105.776 7.48447C105.544 7.71571 105.427 8.00032 105.427 8.3383V24.8013C105.427 25.1393 105.544 25.4238 105.776 25.6551C106.008 25.8864 106.293 26.002 106.633 26.002C106.973 26.002 107.258 25.8864 107.49 25.6551ZM113.528 26.1793C113.144 26.1793 112.812 26.0462 112.545 25.7805C112.278 25.5147 112.145 25.1845 112.145 24.8013V13.3546C112.145 12.9725 112.278 12.643 112.543 12.3776C112.808 12.0944 113.141 11.9498 113.528 11.9498C113.915 11.9498 114.247 12.0935 114.511 12.3753C114.795 12.6391 114.939 12.9692 114.939 13.3546V14.0023C115.541 13.3934 116.185 12.8943 116.869 12.5067C117.687 12.0442 118.647 11.8165 119.744 11.8165C120.754 11.8165 121.638 12.0547 122.385 12.5383C123.145 13.019 123.721 13.6761 124.11 14.5055C124.515 15.3317 124.717 16.2387 124.717 17.2235V24.8013C124.717 25.1878 124.572 25.5185 124.287 25.7828C124.021 26.047 123.69 26.1793 123.307 26.1793C122.922 26.1793 122.59 26.0462 122.323 25.7805C122.057 25.5147 121.923 25.1845 121.923 24.8013V17.4903C121.923 16.4283 121.683 15.6649 121.232 15.1677C120.785 14.6738 120.103 14.4124 119.154 14.4124C118.295 14.4124 117.525 14.6344 116.841 15.0769C116.177 15.518 115.543 16.1108 114.939 16.8588V24.8013C114.939 25.1878 114.794 25.5185 114.509 25.7828C114.243 26.047 113.912 26.1793 113.528 26.1793ZM114.386 25.6551C114.636 25.4238 114.761 25.1393 114.761 24.8013V16.7966C115.385 16.0139 116.046 15.3913 116.743 14.9289C117.458 14.4663 118.261 14.2351 119.154 14.2351C121.119 14.2351 122.101 15.3202 122.101 17.4903V24.8013C122.101 25.1393 122.217 25.4238 122.449 25.6551C122.681 25.8864 122.967 26.002 123.307 26.002C123.646 26.002 123.932 25.8864 124.163 25.6551C124.414 25.4238 124.539 25.1393 124.539 24.8013V17.2235C124.539 16.263 124.342 15.3825 123.949 14.5819C123.575 13.7815 123.021 13.15 122.289 12.6876C121.574 12.225 120.726 11.9938 119.744 11.9938C118.672 11.9938 117.744 12.2161 116.957 12.6608C116.239 13.0669 115.567 13.599 114.939 14.2573C114.879 14.3199 114.82 14.3836 114.761 14.4485V13.3546C114.761 13.0166 114.636 12.732 114.386 12.5007C114.153 12.2517 113.868 12.1272 113.528 12.1272C113.189 12.1272 112.904 12.2517 112.671 12.5007C112.439 12.732 112.323 13.0166 112.323 13.3546V24.8013C112.323 25.1393 112.439 25.4238 112.671 25.6551C112.904 25.8864 113.189 26.002 113.528 26.002C113.868 26.002 114.153 25.8864 114.386 25.6551Z" fill="#30424F"/>
<path opacity="0.6" d="M132.818 26.002C132.479 26.002 132.193 25.8864 131.961 25.6552C131.728 25.4239 131.612 25.1393 131.612 24.8013V9.51238H126.147C125.826 9.51238 125.558 9.40561 125.343 9.19217C125.129 8.97873 125.022 8.71191 125.022 8.39172C125.022 8.07153 125.129 7.80471 125.343 7.59125C125.558 7.36001 125.826 7.24438 126.147 7.24438H139.488C139.81 7.24438 140.078 7.36001 140.292 7.59125C140.525 7.80471 140.64 8.07153 140.64 8.39172C140.64 8.71191 140.525 8.97873 140.292 9.19217C140.078 9.40561 139.81 9.51238 139.488 9.51238H134.05V24.8013C134.05 25.1393 133.925 25.4239 133.676 25.6552C133.443 25.8864 133.157 26.002 132.818 26.002Z" fill="#30424F"/>
<path opacity="0.6" d="M147.497 26.1355C145.318 26.1355 143.612 25.5217 142.379 24.2944C141.166 23.0492 140.558 21.306 140.558 19.0647C140.558 17.8017 140.79 16.6366 141.254 15.5693C141.718 14.502 142.433 13.6393 143.397 12.9812C144.362 12.323 145.55 11.9939 146.961 11.9939C148.282 11.9939 149.425 12.3052 150.389 12.9277C151.354 13.5326 152.087 14.3508 152.586 15.3826C153.086 16.3964 153.336 17.5082 153.336 18.7178C153.336 19.0558 153.221 19.3404 152.988 19.5717C152.774 19.8029 152.479 19.9185 152.104 19.9185H143.023C143.166 21.1637 143.63 22.1332 144.415 22.8268C145.202 23.5206 146.3 23.8675 147.711 23.8675C148.461 23.8675 149.112 23.7963 149.666 23.654C150.238 23.5118 150.791 23.3072 151.328 23.0404C151.47 22.9692 151.631 22.9336 151.809 22.9336C152.096 22.9336 152.346 23.0314 152.56 23.2271C152.774 23.4228 152.881 23.6719 152.881 23.9742C152.881 24.3655 152.649 24.6947 152.184 24.9615C151.488 25.3528 150.8 25.6463 150.122 25.842C149.443 26.0376 148.568 26.1355 147.497 26.1355ZM150.926 17.9441C150.872 17.0724 150.64 16.3431 150.229 15.7561C149.836 15.1691 149.345 14.7421 148.755 14.4754C148.166 14.1907 147.568 14.0484 146.961 14.0484C146.353 14.0484 145.755 14.1907 145.166 14.4754C144.576 14.7421 144.085 15.1691 143.692 15.7561C143.299 16.3431 143.076 17.0724 143.023 17.9441H150.926Z" fill="#30424F"/>
<path opacity="0.6" d="M162.884 26.1355C161.599 26.1355 160.41 25.8509 159.321 25.2817C158.232 24.7125 157.357 23.8942 156.696 22.8268C156.053 21.7596 155.732 20.5055 155.732 19.0647C155.732 17.6239 156.053 16.3698 156.696 15.3025C157.357 14.2352 158.232 13.417 159.321 12.8477C160.41 12.2785 161.599 11.9939 162.884 11.9939C163.831 11.9939 164.643 12.1184 165.323 12.3674C166.018 12.5987 166.662 12.9011 167.251 13.2747C167.608 13.5059 167.787 13.8172 167.787 14.2085C167.787 14.4754 167.68 14.7244 167.466 14.9556C167.269 15.1691 167.036 15.2758 166.769 15.2758C166.572 15.2758 166.376 15.2225 166.179 15.1157C165.59 14.8133 165.081 14.5998 164.653 14.4754C164.242 14.333 163.723 14.2619 163.099 14.2619C161.563 14.2619 160.357 14.7066 159.482 15.596C158.607 16.4677 158.17 17.6239 158.17 19.0647C158.17 20.5055 158.607 21.6706 159.482 22.5601C160.357 23.4317 161.563 23.8675 163.099 23.8675C163.723 23.8675 164.242 23.8053 164.653 23.6807C165.081 23.5384 165.59 23.3161 166.179 23.0137C166.376 22.9069 166.572 22.8536 166.769 22.8536C167.036 22.8536 167.269 22.9692 167.466 23.2004C167.68 23.4139 167.787 23.654 167.787 23.9209C167.787 24.3122 167.608 24.6235 167.251 24.8547C166.662 25.2283 166.018 25.5396 165.323 25.7886C164.643 26.0198 163.831 26.1355 162.884 26.1355Z" fill="#30424F"/>
<path opacity="0.6" d="M172.052 26.002C171.712 26.002 171.427 25.8863 171.194 25.6551C170.963 25.4238 170.846 25.1392 170.846 24.8013V7.48447C170.846 7.14649 170.963 6.86188 171.194 6.63063C171.427 6.3816 171.712 6.25708 172.052 6.25708C172.392 6.25708 172.677 6.3816 172.909 6.63063C173.159 6.86188 173.284 7.14649 173.284 7.48447V14.4485C173.962 13.7014 174.695 13.1055 175.481 12.6608C176.267 12.2162 177.196 11.9938 178.267 11.9938C179.249 11.9938 180.098 12.225 180.812 12.6875C181.544 13.15 182.098 13.7815 182.473 14.5819C182.866 15.3825 183.063 16.2629 183.063 17.2235V24.8013C183.063 25.1392 182.937 25.4238 182.687 25.6551C182.455 25.8863 182.169 26.002 181.83 26.002C181.491 26.002 181.205 25.8863 180.973 25.6551C180.74 25.4238 180.624 25.1392 180.624 24.8013V17.4904C180.624 15.3202 179.642 14.2351 177.677 14.2351C176.785 14.2351 175.981 14.4663 175.267 14.9288C174.57 15.3913 173.909 16.0139 173.284 16.7966V24.8013C173.284 25.1392 173.159 25.4238 172.909 25.6551C172.677 25.8863 172.392 26.002 172.052 26.002Z" fill="#30424F"/>
<path opacity="0.6" fill-rule="evenodd" clip-rule="evenodd" d="M142.251 24.4179C140.996 23.1308 140.379 21.3381 140.379 19.0647C140.379 17.7796 140.615 16.5902 141.09 15.4988C141.568 14.4008 142.304 13.5119 143.297 12.8348C144.296 12.1525 145.52 11.8165 146.96 11.8165C148.31 11.8165 149.488 12.1348 150.485 12.7783C151.477 13.4008 152.231 14.2442 152.746 15.305C153.258 16.3448 153.514 17.4833 153.514 18.7178C153.514 19.0998 153.381 19.4292 153.115 19.6945C152.862 19.9671 152.517 20.0958 152.103 20.0958H143.224C143.388 21.2104 143.828 22.0712 144.533 22.6942C145.277 23.3505 146.328 23.6902 147.71 23.6902C148.45 23.6902 149.086 23.62 149.621 23.4823L149.622 23.482C150.182 23.3429 150.723 23.1428 151.247 22.8817C151.417 22.7968 151.606 22.7563 151.809 22.7563C152.14 22.7563 152.433 22.8713 152.679 23.0963C152.932 23.3273 153.059 23.6246 153.059 23.9742C153.059 24.4512 152.769 24.8296 152.272 25.1151L152.271 25.1159C151.565 25.5131 150.864 25.8123 150.171 26.0123C149.469 26.2143 148.576 26.3128 147.496 26.3128C145.282 26.3128 143.526 25.6883 142.253 24.4198L142.251 24.4179ZM143.045 20.0958C143.037 20.0374 143.028 19.9782 143.022 19.9185H152.103C152.478 19.9185 152.773 19.8029 152.987 19.5716C153.22 19.3404 153.336 19.0558 153.336 18.7178C153.336 17.5082 153.086 16.3964 152.585 15.3825C152.086 14.3508 151.353 13.5326 150.389 12.9277C149.424 12.3052 148.281 11.9939 146.96 11.9939C145.549 11.9939 144.361 12.3229 143.397 12.9811C142.432 13.6392 141.718 14.502 141.253 15.5693C140.789 16.6366 140.558 17.8017 140.558 19.0647C140.558 21.306 141.165 23.0492 142.378 24.2944C143.612 25.5217 145.317 26.1354 147.496 26.1354C148.568 26.1354 149.443 26.0376 150.121 25.8419C150.799 25.6463 151.487 25.3528 152.184 24.9615C152.649 24.6946 152.88 24.3655 152.88 23.9742C152.88 23.6718 152.773 23.4228 152.559 23.2271C152.345 23.0314 152.095 22.9336 151.809 22.9336C151.63 22.9336 151.47 22.9692 151.327 23.0404C150.791 23.3071 150.237 23.5117 149.665 23.654C149.112 23.7963 148.461 23.8675 147.71 23.8675C146.299 23.8675 145.201 23.5206 144.415 22.8268C143.666 22.1664 143.21 21.256 143.045 20.0958ZM150.08 15.8544C149.704 15.2923 149.238 14.8886 148.681 14.6367L148.678 14.6349C148.11 14.3611 147.538 14.2257 146.96 14.2257C146.382 14.2257 145.809 14.361 145.243 14.6349L145.238 14.6368C144.683 14.8886 144.216 15.2923 143.839 15.8544C143.496 16.3682 143.285 17.0033 143.214 17.7667H150.733C150.66 17.0048 150.442 16.3707 150.082 15.8575L150.08 15.8544ZM150.911 17.7667C150.917 17.8252 150.921 17.8842 150.925 17.944H143.022C143.026 17.8842 143.03 17.8252 143.035 17.7667C143.107 16.973 143.326 16.3028 143.691 15.7561C144.085 15.169 144.575 14.7421 145.165 14.4753C145.755 14.1907 146.352 14.0484 146.96 14.0484C147.567 14.0484 148.166 14.1907 148.754 14.4753C149.344 14.7421 149.836 15.169 150.228 15.7561C150.611 16.3028 150.839 16.973 150.911 17.7667ZM156.544 22.9199L156.543 22.9181C155.881 21.8191 155.553 20.5325 155.553 19.0647C155.553 17.5969 155.881 16.3102 156.543 15.2112L156.544 15.2094C157.221 14.1156 158.119 13.275 159.238 12.6906C160.354 12.1075 161.57 11.8165 162.884 11.8165C163.844 11.8165 164.677 11.9425 165.38 12.2C166.089 12.4355 166.744 12.7437 167.346 13.125L167.348 13.1259C167.75 13.3866 167.965 13.7513 167.965 14.2085C167.965 14.5278 167.835 14.8181 167.596 15.0758C167.369 15.3222 167.09 15.4531 166.768 15.4531C166.538 15.4531 166.314 15.3907 166.095 15.2724C165.512 14.9734 165.015 14.7656 164.602 14.6456L164.598 14.6443L164.593 14.6428C164.208 14.5092 163.712 14.4391 163.098 14.4391C161.598 14.4391 160.443 14.8721 159.609 15.7201L159.608 15.7214C158.771 16.5541 158.347 17.6623 158.347 19.0647C158.347 20.4665 158.771 21.5842 159.608 22.4351C160.442 23.2656 161.598 23.6902 163.098 23.6902C163.712 23.6902 164.209 23.629 164.598 23.5117C165.014 23.3734 165.512 23.1559 166.095 22.8569C166.314 22.7387 166.538 22.6762 166.768 22.6762C167.093 22.6762 167.371 22.8188 167.596 23.0802C167.835 23.321 167.965 23.6029 167.965 23.9209C167.965 24.378 167.75 24.7427 167.348 25.0034L167.346 25.0043C166.745 25.3853 166.09 25.7023 165.381 25.9555L165.379 25.9564C164.677 26.1956 163.844 26.3128 162.884 26.3128C161.57 26.3128 160.354 26.0218 159.238 25.4387C158.119 24.8543 157.221 24.0137 156.544 22.9199ZM167.465 23.2004C167.268 22.9692 167.036 22.8535 166.768 22.8535C166.571 22.8535 166.375 22.9069 166.179 23.0137C165.589 23.3161 165.08 23.5384 164.652 23.6807C164.241 23.8052 163.723 23.8675 163.098 23.8675C161.562 23.8675 160.356 23.4317 159.481 22.56C158.606 21.6706 158.169 20.5055 158.169 19.0647C158.169 17.6238 158.606 16.4675 159.481 15.596C160.356 14.7066 161.562 14.2619 163.098 14.2619C163.723 14.2619 164.241 14.333 164.652 14.4753C165.08 14.5998 165.589 14.8133 166.179 15.1157C166.375 15.2224 166.571 15.2758 166.768 15.2758C167.036 15.2758 167.268 15.169 167.465 14.9556C167.679 14.7243 167.786 14.4753 167.786 14.2085C167.786 13.8171 167.608 13.5059 167.251 13.2746C166.661 12.9011 166.018 12.5987 165.322 12.3674C164.642 12.1183 163.831 11.9939 162.884 11.9939C161.598 11.9939 160.41 12.2784 159.32 12.8477C158.231 13.4169 157.356 14.2352 156.696 15.3025C156.052 16.3697 155.731 17.6238 155.731 19.0647C155.731 20.5055 156.052 21.7596 156.696 22.8268C157.356 23.8941 158.231 24.7125 159.32 25.2817C160.41 25.8509 161.598 26.1354 162.884 26.1354C163.831 26.1354 164.642 26.0198 165.322 25.7886C166.018 25.5396 166.661 25.2282 167.251 24.8547C167.608 24.6235 167.786 24.3122 167.786 23.9209C167.786 23.654 167.679 23.4139 167.465 23.2004ZM132.817 26.1794C132.432 26.1794 132.101 26.0463 131.834 25.7806C131.567 25.5149 131.434 25.1846 131.434 24.8013V9.68976H126.147C125.781 9.68976 125.467 9.56649 125.217 9.31757C124.967 9.06872 124.844 8.7558 124.844 8.39175C124.844 8.02892 124.966 7.71688 125.214 7.46841C125.463 7.2018 125.777 7.06708 126.147 7.06708H139.488C139.856 7.06708 140.17 7.20092 140.418 7.46581C140.683 7.71274 140.818 8.02544 140.818 8.39175C140.818 8.75925 140.682 9.07278 140.415 9.32013C140.165 9.56731 139.852 9.68976 139.488 9.68976H134.228V24.8013C134.228 25.1878 134.083 25.5186 133.798 25.7829C133.532 26.0471 133.2 26.1794 132.817 26.1794ZM133.675 25.6552C133.925 25.4239 134.05 25.1393 134.05 24.8013V9.51242H139.488C139.809 9.51242 140.077 9.40565 140.291 9.19221C140.524 8.97875 140.64 8.71194 140.64 8.39175C140.64 8.07156 140.524 7.80474 140.291 7.59128C140.077 7.36003 139.809 7.24441 139.488 7.24441H126.147C125.825 7.24441 125.558 7.36003 125.343 7.59128C125.128 7.80474 125.021 8.07156 125.021 8.39175C125.021 8.71194 125.128 8.97875 125.343 9.19221C125.558 9.40565 125.825 9.51242 126.147 9.51242H131.611V24.8013C131.611 25.1393 131.728 25.4239 131.96 25.6552C132.193 25.8864 132.478 26.0021 132.817 26.0021C133.157 26.0021 133.442 25.8864 133.675 25.6552ZM172.051 26.1794C171.667 26.1794 171.334 26.0463 171.068 25.7806C170.801 25.5149 170.668 25.1846 170.668 24.8013V7.48455C170.668 7.10241 170.801 6.77295 171.066 6.50762C171.331 6.22428 171.663 6.07983 172.051 6.07983C172.438 6.07983 172.77 6.22348 173.034 6.50525C173.317 6.76909 173.462 7.09913 173.462 7.48455V14.0024C174.063 13.3934 174.707 12.8944 175.392 12.5067C176.21 12.0443 177.169 11.8165 178.266 11.8165C179.277 11.8165 180.16 12.0548 180.908 12.5384C181.668 13.0191 182.243 13.6761 182.632 14.5054C183.038 15.3317 183.239 16.2387 183.239 17.2236V24.8013C183.239 25.1878 183.095 25.5187 182.81 25.783C182.544 26.0471 182.213 26.1794 181.83 26.1794C181.444 26.1794 181.113 26.0463 180.846 25.7806C180.579 25.5149 180.445 25.1846 180.445 24.8013V17.4904C180.445 16.4284 180.205 15.665 179.754 15.1677C179.308 14.6739 178.626 14.4125 177.677 14.4125C176.817 14.4125 176.048 14.6345 175.364 15.077C174.699 15.518 174.065 16.1109 173.462 16.8589V24.8013C173.462 25.1878 173.316 25.5186 173.032 25.7829C172.766 26.0471 172.435 26.1794 172.051 26.1794ZM172.909 25.6552C173.159 25.4239 173.283 25.1393 173.283 24.8013V16.7967C173.908 16.014 174.569 15.3914 175.266 14.9289C175.98 14.4664 176.784 14.2352 177.677 14.2352C179.642 14.2352 180.624 15.3203 180.624 17.4904V24.8013C180.624 25.1393 180.739 25.4239 180.972 25.6552C181.204 25.8864 181.49 26.0021 181.83 26.0021C182.168 26.0021 182.454 25.8864 182.686 25.6552C182.936 25.4239 183.062 25.1393 183.062 24.8013V17.2236C183.062 16.263 182.865 15.3825 182.472 14.582C182.097 13.7816 181.543 13.1501 180.812 12.6876C180.097 12.2251 179.248 11.9939 178.266 11.9939C177.195 11.9939 176.266 12.2162 175.48 12.6609C174.762 13.067 174.09 13.5991 173.462 14.2574C173.401 14.32 173.343 14.3837 173.283 14.4486V7.48455C173.283 7.14657 173.159 6.86196 172.909 6.63071C172.676 6.38168 172.391 6.25716 172.051 6.25716C171.711 6.25716 171.426 6.38168 171.194 6.63071C170.962 6.86196 170.845 7.14657 170.845 7.48455V24.8013C170.845 25.1393 170.962 25.4239 171.194 25.6552C171.426 25.8864 171.711 26.0021 172.051 26.0021C172.391 26.0021 172.676 25.8864 172.909 25.6552Z" fill="#30424F"/>
</g>
</g>
<defs>
<clipPath id="clip0_1_292">
<rect width="184" height="31" fill="white"/>
</clipPath>
</defs>
</svg>
