<svg width="244" height="48" viewBox="0 0 244 48" fill="none" xmlns="http://www.w3.org/2000/svg">
<g clip-path="url(#clip0_1_343)">
<path d="M39.2351 10.4971V37.6064H46.7176V23.3964C46.7176 20.6347 47.1745 18.6596 48.0879 17.4711C49.0014 16.2476 50.4765 15.6358 52.5142 15.6358C54.3057 15.6358 55.553 16.1951 56.2556 17.3138C56.9583 18.3974 57.3096 20.0579 57.3096 22.2952V37.6064H64.7921V20.9319C64.7921 19.2539 64.6341 17.7333 64.3178 16.3699C64.0367 14.9716 63.5274 13.8005 62.7898 12.8567C62.0519 11.8779 61.0332 11.1263 59.7335 10.6019C58.4688 10.0426 56.8352 9.76294 54.8329 9.76294C53.2518 9.76294 51.7063 10.13 50.1955 10.8641C48.685 11.5633 47.4556 12.6994 46.5068 14.2725H46.3488V10.4971H39.2351Z" fill="white"/>
<path d="M70.1549 18.8344C70.2605 17.0865 70.6995 15.6358 71.4724 14.4822C72.2453 13.3286 73.229 12.4022 74.4235 11.7031C75.6176 11.0039 76.9526 10.5145 78.4282 10.2349C79.9387 9.92025 81.4492 9.76294 82.96 9.76294C84.33 9.76294 85.7178 9.86784 87.1227 10.0776C88.528 10.2524 89.8102 10.6194 90.9693 11.1787C92.1289 11.7381 93.0773 12.5246 93.8152 13.5384C94.5528 14.5172 94.9216 15.8281 94.9216 17.4711V31.5764C94.9216 32.7999 94.9919 33.971 95.1324 35.0897C95.2729 36.2084 95.519 37.0472 95.8703 37.6064H88.2822C88.1417 37.187 88.0186 36.7676 87.9131 36.3482C87.8428 35.8938 87.7904 35.439 87.7551 34.9848C86.5606 36.2085 85.1556 37.0647 83.5396 37.5542C81.9235 38.0437 80.2725 38.2882 78.5862 38.2882C77.2865 38.2882 76.0745 38.1309 74.9503 37.8163C73.8261 37.5016 72.8424 37.0122 71.9992 36.3482C71.1564 35.684 70.4887 34.8449 69.9969 33.8312C69.5403 32.8174 69.3121 31.6114 69.3121 30.2131C69.3121 28.6749 69.5753 27.4165 70.1025 26.4377C70.6646 25.4239 71.3669 24.6199 72.21 24.0256C73.0885 23.4313 74.0722 22.9944 75.1611 22.7147C76.2853 22.4001 77.4095 22.1554 78.5334 21.9806C79.6576 21.8058 80.7644 21.666 81.8533 21.5611C82.9422 21.4562 83.9084 21.2989 84.7515 21.0892C85.5947 20.8794 86.262 20.5823 86.7539 20.1978C87.2457 19.7783 87.474 19.184 87.439 18.4149C87.439 17.6109 87.2985 16.9817 87.0175 16.5272C86.7714 16.0378 86.42 15.6708 85.9635 15.4261C85.5419 15.1464 85.0326 14.9716 84.4355 14.9017C83.8734 14.7968 83.2585 14.7444 82.5912 14.7444C81.1157 14.7444 79.9561 15.059 79.1133 15.6882C78.2702 16.3175 77.7783 17.3662 77.6378 18.8344H70.1549ZM87.439 24.3402C87.1227 24.6199 86.7189 24.8471 86.2271 25.0219C85.7702 25.1617 85.2609 25.2841 84.6988 25.3889C84.172 25.4938 83.6099 25.5812 83.0124 25.6511C82.4154 25.721 81.8183 25.8084 81.2209 25.9133C80.6588 26.0182 80.0967 26.158 79.5346 26.3328C79.0078 26.5076 78.5334 26.7523 78.1118 27.0669C77.7255 27.3466 77.4095 27.7136 77.1634 28.1681C76.9177 28.6225 76.7946 29.1993 76.7946 29.8984C76.7946 30.5626 76.9177 31.122 77.1634 31.5764C77.4095 32.0309 77.743 32.3979 78.1646 32.6776C78.5862 32.9223 79.078 33.0971 79.6401 33.2019C80.2022 33.3068 80.7818 33.3592 81.3789 33.3592C82.8544 33.3592 83.9961 33.1146 84.8043 32.6251C85.6122 32.1357 86.2093 31.5589 86.5959 30.8947C86.9822 30.1956 87.2108 29.4964 87.281 28.7973C87.3863 28.0981 87.439 27.5388 87.439 27.1194V24.3402Z" fill="white"/>
<path d="M100.94 0.167236V37.6065H108.423V0.167236H100.94Z" fill="white"/>
<path d="M120.954 24.078C120.954 22.9944 121.06 21.9282 121.271 20.8794C121.482 19.8307 121.833 18.9043 122.325 18.1003C122.852 17.2963 123.537 16.6496 124.38 16.1602C125.223 15.6358 126.277 15.3736 127.541 15.3736C128.806 15.3736 129.86 15.6358 130.703 16.1602C131.581 16.6496 132.267 17.2963 132.758 18.1003C133.285 18.9043 133.654 19.8307 133.865 20.8794C134.076 21.9282 134.181 22.9944 134.181 24.078C134.181 25.1617 134.076 26.2279 133.865 27.2766C133.654 28.2904 133.285 29.2168 132.758 30.0558C132.267 30.8598 131.581 31.5065 130.703 31.9959C129.86 32.4853 128.806 32.73 127.541 32.73C126.277 32.73 125.223 32.4853 124.38 31.9959C123.537 31.5065 122.852 30.8598 122.325 30.0558C121.833 29.2168 121.482 28.2904 121.271 27.2766C121.06 26.2279 120.954 25.1617 120.954 24.078ZM113.472 24.078C113.472 26.2454 113.806 28.203 114.473 29.9509C115.141 31.6988 116.089 33.2019 117.319 34.4604C118.548 35.684 120.024 36.6278 121.745 37.2921C123.466 37.9561 125.399 38.2882 127.541 38.2882C129.684 38.2882 131.617 37.9561 133.338 37.2921C135.094 36.6278 136.588 35.684 137.817 34.4604C139.046 33.2019 139.995 31.6988 140.662 29.9509C141.33 28.203 141.664 26.2454 141.664 24.078C141.664 21.9107 141.33 19.9531 140.662 18.2052C139.995 16.4224 139.046 14.9192 137.817 13.6957C136.588 12.4372 135.094 11.4759 133.338 10.8117C131.617 10.1125 129.684 9.76294 127.541 9.76294C125.399 9.76294 123.466 10.1125 121.745 10.8117C120.024 11.4759 118.548 12.4372 117.319 13.6957C116.089 14.9192 115.141 16.4224 114.473 18.2052C113.806 19.9531 113.472 21.9107 113.472 24.078Z" fill="white"/>
<path d="M159.229 31.2094C158.069 31.2094 157.103 30.9646 156.33 30.4752C155.557 29.9859 154.925 29.3566 154.433 28.5876C153.977 27.8185 153.643 26.962 153.432 26.0182C153.256 25.0394 153.168 24.0606 153.168 23.0817C153.168 22.068 153.274 21.1066 153.485 20.1978C153.73 19.2539 154.099 18.4324 154.591 17.7332C155.118 16.9992 155.751 16.4224 156.488 16.0029C157.261 15.5834 158.175 15.3736 159.229 15.3736C160.458 15.3736 161.477 15.6009 162.285 16.0553C163.093 16.5097 163.743 17.1215 164.234 17.8906C164.726 18.6596 165.078 19.551 165.288 20.5648C165.499 21.5436 165.604 22.5924 165.604 23.711C165.604 24.6898 165.464 25.6336 165.183 26.5425C164.937 27.4165 164.55 28.203 164.024 28.9021C163.497 29.6013 162.829 30.1606 162.021 30.5801C161.213 30.9996 160.282 31.2094 159.229 31.2094ZM172.718 35.8763V10.4971H165.604V14.1152H165.499C164.586 12.5421 163.444 11.4234 162.074 10.7592C160.739 10.0951 159.176 9.76294 157.384 9.76294C155.487 9.76294 153.801 10.13 152.325 10.8641C150.885 11.5982 149.673 12.5945 148.689 13.853C147.706 15.0765 146.951 16.5097 146.423 18.1527C145.932 19.7608 145.686 21.4387 145.686 23.1866C145.686 25.0394 145.897 26.8047 146.318 28.4827C146.775 30.1257 147.477 31.5764 148.426 32.8349C149.374 34.0584 150.586 35.0372 152.062 35.7712C153.537 36.4705 155.294 36.8202 157.331 36.8202C158.982 36.8202 160.546 36.488 162.021 35.8237C163.532 35.1248 164.691 34.0584 165.499 32.6251H165.604V36.1909C165.64 38.1134 165.165 39.704 164.182 40.9625C163.233 42.2211 161.705 42.8503 159.597 42.8503C158.262 42.8503 157.085 42.5704 156.067 42.0112C155.048 41.4867 154.363 40.5256 154.012 39.1273H146.581C146.687 40.6654 147.109 41.9762 147.846 43.0598C148.619 44.1785 149.568 45.0874 150.692 45.7867C151.851 46.4857 153.116 46.9927 154.486 47.3073C155.891 47.657 157.261 47.8318 158.596 47.8318C161.723 47.8318 164.217 47.4121 166.079 46.5733C167.941 45.7342 169.363 44.703 170.347 43.4796C171.331 42.2908 171.963 40.9976 172.244 39.5993C172.56 38.201 172.718 36.96 172.718 35.8763Z" fill="white"/>
<path d="M204.3 37.6064V10.4971H196.817V24.7073C196.817 27.4689 196.361 29.4615 195.447 30.685C194.534 31.8736 193.058 32.4678 191.021 32.4678C189.229 32.4678 187.982 31.926 187.279 30.8423C186.577 29.7237 186.225 28.0457 186.225 25.8084V10.4971H178.743V27.1718C178.743 28.8497 178.883 30.3879 179.164 31.7862C179.481 33.1495 180.007 34.3206 180.745 35.2993C181.483 36.2431 182.484 36.9775 183.749 37.5017C185.048 38.0262 186.7 38.2882 188.702 38.2882C190.283 38.2882 191.829 37.9386 193.339 37.2396C194.85 36.5403 196.08 35.4044 197.028 33.8312H197.186V37.6064H204.3Z" fill="white"/>
<path d="M228.317 21.1416H216.144C216.179 20.6172 216.285 20.023 216.461 19.3588C216.671 18.6946 217.005 18.0654 217.462 17.4711C217.954 16.8768 218.586 16.3874 219.358 16.0029C220.167 15.5834 221.168 15.3736 222.362 15.3736C224.189 15.3736 225.542 15.863 226.42 16.8419C227.333 17.8206 227.966 19.2539 228.317 21.1416ZM216.144 25.8609H235.799C235.94 23.7634 235.764 21.7534 235.272 19.8307C234.781 17.908 233.973 16.1951 232.848 14.6919C231.759 13.1888 230.354 12.0002 228.633 11.1263C226.912 10.2174 224.891 9.76294 222.573 9.76294C220.501 9.76294 218.603 10.13 216.882 10.8641C215.196 11.5982 213.738 12.612 212.508 13.9054C211.279 15.1639 210.33 16.6671 209.663 18.4149C208.995 20.1628 208.662 22.0505 208.662 24.078C208.662 26.1755 208.978 28.0981 209.61 29.846C210.278 31.5939 211.209 33.0971 212.403 34.3555C213.597 35.6139 215.055 36.5928 216.777 37.2921C218.498 37.9561 220.43 38.2882 222.573 38.2882C225.664 38.2882 228.299 37.5892 230.477 36.1909C232.655 34.7925 234.271 32.4678 235.325 29.2168H228.738C228.492 30.0558 227.825 30.8598 226.736 31.6289C225.647 32.3629 224.347 32.73 222.836 32.73C220.729 32.73 219.113 32.1882 217.989 31.1045C216.864 30.0208 216.25 28.2729 216.144 25.8609Z" fill="white"/>
<path fill-rule="evenodd" clip-rule="evenodd" d="M7.82111 22.9069C7.01343 23.6008 6.81557 23.7407 6.14027 23.7407V29.596C9.01279 29.596 10.6024 28.2298 11.5883 27.3825C11.6 27.3724 11.6116 27.3625 11.6231 27.3526C12.4307 26.6587 12.6286 26.5189 13.3039 26.5189C13.9792 26.5189 14.1771 26.6587 14.9847 27.3526C14.9962 27.3625 15.0078 27.3724 15.0195 27.3825C16.0054 28.2298 17.595 29.596 20.4675 29.596C23.3401 29.596 24.9297 28.2298 25.9156 27.3825L25.9503 27.3526C26.758 26.6587 26.9559 26.5189 27.6312 26.5189C28.3065 26.5189 28.5043 26.6587 29.312 27.3526L29.3467 27.3825C30.3327 28.2298 31.9223 29.596 34.7948 29.596C37.6672 29.596 39.2571 28.2298 40.2429 27.3825L40.2775 27.3526C41.0853 26.6587 41.2832 26.5189 41.9586 26.5189V20.6636C39.0858 20.6636 37.4963 22.0297 36.5105 22.8771L36.4756 22.9069C35.668 23.6008 35.4702 23.7407 34.7948 23.7407C34.1195 23.7407 33.9216 23.6008 33.1139 22.9069L33.0792 22.8771C32.0933 22.0297 30.5037 20.6636 27.6312 20.6636C24.7586 20.6636 23.169 22.0297 22.1831 22.8771C22.1715 22.8871 22.1599 22.897 22.1484 22.9069C21.3407 23.6008 21.1428 23.7407 20.4675 23.7407C19.7922 23.7407 19.5944 23.6008 18.7867 22.9069C18.7752 22.897 18.7636 22.8871 18.752 22.8771C17.766 22.0297 16.1764 20.6636 13.3039 20.6636C10.4313 20.6636 8.84178 22.0297 7.85586 22.8771C7.84418 22.8871 7.83261 22.897 7.82111 22.9069Z" fill="white"/>
<path d="M18.3266 9.24816L13.429 23.0153L11.2698 29.1633L8.32071 37.5181H0L14.2189 0H22.6976L36.7587 37.5181H28.1746L25.3308 29.1633L23.1716 23.0153L18.432 9.24816H18.3266Z" fill="white"/>
<path d="M238.808 6.23143V5.00165H239.589C239.693 5.00165 239.801 5.00907 239.912 5.024C240.031 5.03889 240.135 5.06871 240.225 5.11345C240.321 5.15069 240.399 5.20661 240.459 5.28113C240.518 5.35566 240.548 5.45628 240.548 5.58297C240.548 5.86621 240.462 6.0451 240.291 6.11963C240.12 6.19415 239.901 6.23143 239.633 6.23143H238.808ZM237.882 4.27495V8.9593H238.808V6.95812H239.388L240.526 8.9593H241.496L240.247 6.91338C240.418 6.89849 240.578 6.86496 240.726 6.81275C240.875 6.76058 241.005 6.68606 241.117 6.58918C241.228 6.49227 241.314 6.3693 241.373 6.22025C241.44 6.06371 241.474 5.87738 241.474 5.66124C241.474 5.15444 241.314 4.79668 240.994 4.58797C240.682 4.37929 240.232 4.27495 239.644 4.27495H237.882ZM236.399 6.62271C236.399 6.14569 236.48 5.7097 236.644 5.31466C236.808 4.9122 237.031 4.56562 237.313 4.27495C237.596 3.98426 237.927 3.75694 238.306 3.59297C238.692 3.42901 239.105 3.34702 239.544 3.34702C239.975 3.34702 240.381 3.42901 240.76 3.59297C241.146 3.75694 241.481 3.98426 241.764 4.27495C242.046 4.56562 242.27 4.9122 242.433 5.31466C242.604 5.7097 242.689 6.14569 242.689 6.62271C242.689 7.0997 242.604 7.53944 242.433 7.94194C242.27 8.34441 242.046 8.6947 241.764 8.99283C241.481 9.28353 241.146 9.51084 240.76 9.67481C240.381 9.83878 239.975 9.92077 239.544 9.92077C239.105 9.92077 238.692 9.83878 238.306 9.67481C237.927 9.51084 237.596 9.28353 237.313 8.99283C237.031 8.6947 236.808 8.34441 236.644 7.94194C236.48 7.53944 236.399 7.0997 236.399 6.62271ZM235.261 6.62271C235.261 7.26367 235.376 7.84132 235.606 8.35558C235.845 8.86985 236.161 9.30959 236.554 9.67481C236.949 10.04 237.403 10.3195 237.915 10.5133C238.436 10.7071 238.979 10.804 239.544 10.804C240.109 10.804 240.648 10.7071 241.161 10.5133C241.682 10.3195 242.139 10.04 242.534 9.67481C242.928 9.30959 243.24 8.86985 243.47 8.35558C243.708 7.84132 243.827 7.26367 243.827 6.62271C243.827 5.98918 243.708 5.41529 243.47 4.90102C243.24 4.38676 242.928 3.95073 242.534 3.59297C242.139 3.22777 241.682 2.94828 241.161 2.75449C240.648 2.55325 240.109 2.45264 239.544 2.45264C238.979 2.45264 238.436 2.55325 237.915 2.75449C237.403 2.94828 236.949 3.22777 236.554 3.59297C236.161 3.95073 235.845 4.38676 235.606 4.90102C235.376 5.41529 235.261 5.98918 235.261 6.62271Z" fill="white"/>
</g>
<defs>
<clipPath id="clip0_1_343">
<rect width="244" height="48" fill="white"/>
</clipPath>
</defs>
</svg>
