<svg width="22" height="24" viewBox="0 0 22 24" fill="none" xmlns="http://www.w3.org/2000/svg">
<path d="M9.41653 0.482813C7.47379 0.778125 5.59314 1.6125 3.99637 3.00469L7.42944 6.63281C8.6625 4.95469 9.35 2.82656 9.41653 0.482813V0.482813ZM11 10.4062L18.0036 3.00469C16.123 1.36406 13.852 0.496875 11.55 0.375C11.4968 3.37031 10.5964 6.10781 8.94637 8.23594L11 10.4062ZM2.48831 4.59844C1.17097 6.28594 0.381452 8.27344 0.102016 10.3266C2.31976 10.2563 4.3379 9.52969 5.92137 8.22656L2.48831 4.59844ZM14.5617 14.1703C16.571 12.4312 19.1613 11.4797 22 11.4188C21.8847 8.98594 21.0641 6.58594 19.5117 4.59844L12.5081 12L14.5617 14.1703V14.1703ZM11 13.5938L3.99637 20.9953C5.87702 22.6312 8.14798 23.5031 10.45 23.625C10.5077 20.625 11.4081 17.8875 13.0536 15.7641L11 13.5938ZM19.5117 19.4016C20.829 17.7141 21.6185 15.7266 21.898 13.6734C19.6758 13.7484 17.6621 14.475 16.0786 15.7734L19.5117 19.4016ZM7.43831 9.82969C5.4246 11.5734 2.83427 12.5297 0 12.5812C0.115323 15.0141 0.935887 17.4141 2.48831 19.4016L9.49194 12L7.43831 9.82969ZM12.5835 23.5172C14.5262 23.2219 16.4069 22.3875 18.0036 20.9953L14.5706 17.3672C13.3419 19.0406 12.6544 21.1734 12.5835 23.5172Z" fill="black"/>
</svg>
