<svg width="20" height="22" viewBox="0 0 20 22" fill="none" xmlns="http://www.w3.org/2000/svg">
<path d="M19.3826 12.635C20.6131 9.3197 19.9998 5.37795 17.5388 2.68903C14.2615 -0.894776 8.94509 -0.894776 5.66774 2.68903L3.48024 5.07965L11.742 14.0924C13.5427 11.4461 16.8787 10.7941 19.3826 12.635V12.635ZM10.8709 16.0313L2.26149 6.64357C1.19509 8.57397 1.41384 11.118 2.93728 12.7842L4.28493 14.2586L0.261495 18.0683C-0.0744427 18.3879 -0.093974 18.9504 0.222432 19.2955L2.30837 21.5754C2.62087 21.9205 3.13649 21.8992 3.42946 21.5328L6.91774 17.1308L8.31228 18.6521C9.08181 19.4916 10.0545 19.9518 11.0584 20.0711C10.781 19.3467 10.6287 18.5541 10.6287 17.7231C10.6248 17.135 10.7263 16.5725 10.8709 16.0313V16.0313ZM16.2498 13.6365C14.1795 13.6365 12.4998 15.4688 12.4998 17.7274C12.4998 19.9859 14.1795 21.8183 16.2498 21.8183C18.3201 21.8183 19.9998 19.9859 19.9998 17.7274C19.9998 15.4688 18.3201 13.6365 16.2498 13.6365Z" fill="black"/>
</svg>
