<svg width="22" height="22" viewBox="0 0 22 22" fill="none" xmlns="http://www.w3.org/2000/svg">
<path d="M9.94277 10.462C9.9098 8.89981 9.57874 7.35825 8.96738 5.92024C5.06582 7.74211 2.1998 11.1796 1.22011 15.2359C1.79345 16.5495 2.62488 17.7345 3.66504 18.7206C4.6542 15.2811 6.89329 12.3355 9.94277 10.462V10.462ZM8.35722 4.68703C7.70371 3.54842 6.87089 2.52263 5.89082 1.64914C1.98066 3.78899 -0.331057 8.21907 0.519724 12.9156C1.95488 9.34485 4.74785 6.3843 8.35722 4.68703ZM16.4182 11.7812C16.7877 7.49289 15.2451 3.29485 12.2287 0.420236C11.5971 0.347189 10.0115 0.183907 7.9791 0.78547C10.4658 3.36225 11.8988 6.77585 11.9967 10.3555C13.366 11.1085 14.8669 11.5924 16.4182 11.7812V11.7812ZM11.06 12.1894C9.72348 13.0008 8.55391 14.0595 7.61387 15.3089C11.1373 17.771 15.5416 18.5359 19.5377 17.3628C20.3973 16.2111 21.0141 14.897 21.351 13.4999C20.2147 13.7895 19.0474 13.9395 17.8748 13.9468C15.5287 13.9425 13.1955 13.3409 11.06 12.1894ZM6.83613 16.4734C6.18301 17.5906 5.73183 18.8109 5.45683 20.0913C7.3629 21.2612 9.58975 21.7993 11.8197 21.6288C14.0496 21.4582 16.1688 20.5878 17.8748 19.1417C13.0236 19.8335 9.13926 18.0761 6.83613 16.4734V16.4734ZM14.5834 0.97883C16.9596 4.00383 18.1283 7.9054 17.7889 11.8757C19.0979 11.8785 20.399 11.6725 21.6432 11.2656C21.6432 11.1796 21.6561 11.0937 21.6561 11.0077C21.6561 6.37571 18.7041 2.45266 14.5834 0.97883V0.97883Z" fill="black"/>
</svg>
